# xmcd CD database file
#
# Track frame offsets:
#	150
#	15983
#	31786
#	53335
#	69117
#	90156
#	112371
#	130821
#	147292
#	164752
#	182239
#	199179
#	220796
#	242838
#
# Disc length: 3524 seconds
#
# Revision: 0
# Processed by: cddbd v1.5PL3 Copyright (c) Steve Scherf et al.
# Submitted via: CDex 1.51
#
DISCID=ba0dc20e
DTITLE=埼玉最終兵器 - LOST CHILD ORIGINAL SOUND TRACK SIDE-B
DYEAR=2003
DGENRE=Rock
TTITLE0=Time goes by …
TTITLE1=Cyber Space 303
TTITLE2=Sledge Hammer
TTITLE3=Rambling feather
TTITLE4=Relieve
TTITLE5=Tensional field
TTITLE6=Rapid Fire
TTITLE7=Catch The Tomorrow
TTITLE8=Demons Carnival
TTITLE9=Engage
TTITLE10=KUSANAGI
TTITLE11=Amitto
TTITLE12=Wail of soul
TTITLE13=Survive
EXTD=YEAR: 2003/12/28
EXTT0=
EXTT1=
EXTT2=
EXTT3=
EXTT4=
EXTT5=
EXTT6=
EXTT7=
EXTT8=
EXTT9=
EXTT10=
EXTT11=
EXTT12=
EXTT13=
PLAYORDER=
